<svg width="512" height="512" viewBox="0 0 512 512" xmlns="http://www.w3.org/2000/svg">
  <defs>
    <linearGradient id="wolfGradient" x1="0%" y1="0%" x2="100%" y2="100%">
      <stop offset="0%" style="stop-color:#1c1c2b;stop-opacity:1" />
      <stop offset="100%" style="stop-color:#0a0a0f;stop-opacity:1" />
    </linearGradient>
    <filter id="glow">
      <feGaussianBlur stdDeviation="2.5" result="coloredBlur"/>
      <feMerge>
        <feMergeNode in="coloredBlur"/>
        <feMergeNode in="SourceGraphic"/>
      </feMerge>
    </filter>
  </defs>
  
  <!-- Background Shield/Enigma -->
  <path d="M256 40 L440 140 L440 372 L256 472 L72 372 L72 140 Z" fill="#050508" stroke="#1c1c2b" stroke-width="2" />
  
  <!-- Wolf Profile (Stylized/Geometric) -->
  <g transform="translate(100, 120) scale(0.65)">
    <!-- Main Head Shape -->
    <path d="M100 250 L250 100 L450 180 L520 280 L480 400 L300 480 L180 420 Z" fill="url(#wolfGradient)" stroke="#2d2d44" stroke-width="4"/>
    
    <!-- Snout and Mouth -->
    <path d="M450 180 L580 220 L620 300 L560 380 L480 400" fill="none" stroke="#2d2d44" stroke-width="4" stroke-linejoin="round"/>
    
    <!-- Fangs (The "OpenFang" characteristic) -->
    <!-- Upper Fangs -->
    <path d="M570 240 L590 320 L550 260 Z" fill="#f0f0f5" filter="url(#glow)"/>
    <path d="M540 250 L560 310 L520 270 Z" fill="#f0f0f5" filter="url(#glow)"/>
    
    <!-- Lower Fangs -->
    <path d="M550 360 L570 300 L530 350 Z" fill="#f0f0f5" filter="url(#glow)"/>
    
    <!-- Eye (Cyber Red Glow) -->
    <circle cx="420" cy="240" r="12" fill="#ff2d55" filter="url(#glow)"/>
    
    <!-- Ear -->
    <path d="M250 100 L220 20 L320 80 Z" fill="#1c1c2b" stroke="#2d2d44" stroke-width="2"/>
    
    <!-- Fur/Neck Details -->
    <path d="M180 420 L120 480 L200 460 L160 520 L280 490" fill="none" stroke="#2d2d44" stroke-width="3"/>
  </g>
  
  <!-- "OPENFANG" Text (Minimalist) -->
  <text x="256" y="440" font-family="Arial, sans-serif" font-size="32" font-weight="bold" fill="#f0f0f5" text-anchor="middle" letter-spacing="8" style="text-transform: uppercase;">OpenFang</text>
  <text x="256" y="465" font-family="Arial, sans-serif" font-size="12" fill="#2d2d44" text-anchor="middle" letter-spacing="4" style="text-transform: uppercase;">Sovereign Orchestration Hub</text>
</svg>
